<?xml version="1.0" encoding="utf-8"?>
<!-- Generator: Adobe Illustrator 16.0.0, SVG Export Plug-In . SVG Version: 6.00 Build 0)  -->
<!DOCTYPE svg PUBLIC "-//W3C//DTD SVG 1.1//EN" "http://www.w3.org/Graphics/SVG/1.1/DTD/svg11.dtd">
<svg version="1.1" id="Layer_1" xmlns="http://www.w3.org/2000/svg" xmlns:xlink="http://www.w3.org/1999/xlink" x="0px" y="0px"
	 width="840px" height="400px" viewBox="0 0 840 400" enable-background="new 0 0 840 400" xml:space="preserve">
<g>
	<g>
		<path fill="#FFFFFF" d="M425.207,56.169c-22.803-22.547-54.307-35.471-86.515-35.471c-22.404,0-44.424,6.184-63.678,17.881
			c-57.931,35.207-76.424,110.994-41.226,168.94c22.487,37.027,61.803,59.139,105.165,59.142c0.002,0,0.007,0,0.008,0
			c22.247,0,44.112-6.097,63.274-17.638l-6.606-10.869c-17.165,10.326-36.754,15.783-56.688,15.783
			c-38.878,0-74.128-19.82-94.294-53.023c-31.554-51.95-14.971-119.897,36.967-151.465c17.26-10.487,37-16.031,57.089-16.031
			c28.86,0,57.091,11.574,77.533,31.769L425.207,56.169z"/>
		<path opacity="0.9" fill="#FFFFFF" enable-background="new    " d="M282.136,50.304c-51.467,31.281-67.899,98.612-36.632,150.091
			c19.979,32.897,54.91,52.541,93.438,52.542c0.003,0,0.007,0,0.009,0c19.909,0.002,39.477-5.496,56.587-15.896
			c12.479-7.581,23.128-17.372,31.655-29.104l-10.321-7.438c-7.526,10.349-16.924,18.985-27.936,25.679
			c-15.118,9.188-32.411,14.045-50.012,14.045c-0.002,0-0.005,0-0.007,0c-34.034,0-64.894-17.354-82.546-46.42
			c-27.625-45.5-13.108-104.99,32.358-132.615c15.113-9.182,32.401-14.035,49.995-14.035c11.938,0,23.647,2.175,34.811,6.465
			l4.628-11.843c-12.648-4.879-25.922-7.35-39.46-7.35C318.802,34.424,299.239,39.915,282.136,50.304z"/>
		<path opacity="0.8" fill="#FFFFFF" enable-background="new    " d="M289.252,62.038c-44.997,27.339-59.363,86.213-32.024,131.241
			c17.467,28.754,48.005,45.92,81.688,45.921c5.619,0,11.264-0.501,16.784-1.49l-2.308-12.515
			c-4.771,0.853-9.647,1.283-14.503,1.283c-29.187,0-55.652-14.883-70.797-39.811c-23.704-39.029-11.246-90.067,27.771-113.772
			c11.683-7.094,25.04-11.217,38.659-11.936l-0.585-12.701C318.203,49.064,302.763,53.823,289.252,62.038z"/>
		<path opacity="0.7" fill="#FFFFFF" enable-background="new    " d="M391.175,98.577l9.688-8.223
			c-15.518-18.117-38.12-28.497-62.098-28.497c-14.912,0-29.567,4.117-42.382,11.905c-18.674,11.341-31.812,29.277-36.992,50.507
			c-5.182,21.228-1.787,43.205,9.557,61.882c14.954,24.623,41.104,39.324,69.954,39.324c9.787,0,19.382-1.733,28.525-5.16
			l-4.519-11.891c-7.705,2.877-15.788,4.336-24.032,4.336c-24.353,0.002-46.433-12.416-59.063-33.217
			c-19.771-32.555-9.376-75.137,23.174-94.922c10.815-6.573,23.188-10.048,35.779-10.048
			C358.99,74.574,378.062,83.316,391.175,98.577z"/>
		<path opacity="0.6" fill="#FFFFFF" enable-background="new    " d="M303.506,85.477c-32.079,19.499-42.325,61.465-22.839,93.547
			c12.454,20.507,34.226,32.75,58.236,32.75c0,0,0.003,0,0.004,0c12.409,0.004,24.604-3.424,35.271-9.903
			c4.344-2.641,8.395-5.775,12.046-9.327l-8.918-9.063c-2.977,2.877-6.247,5.406-9.729,7.521
			c-8.674,5.271-18.596,8.058-28.692,8.058c-19.524,0.002-37.227-9.953-47.353-26.627c-15.851-26.092-7.521-60.222,18.565-76.082
			c8.672-5.268,18.59-8.052,28.681-8.052c11.301,0,22.579,3.554,31.816,10.017l7.396-10.351
			c-11.384-7.993-25.296-12.39-39.233-12.39C326.349,75.573,314.159,78.998,303.506,85.477z"/>
		<path opacity="0.5" fill="#FFFFFF" enable-background="new    " d="M338.784,89.288c-9.91,0-19.649,2.737-28.167,7.914
			c-25.614,15.576-33.793,49.09-18.229,74.708c9.941,16.371,27.323,26.146,46.497,26.146c0,0,0.001,0,0.002,0
			c9.912,0,19.652-2.735,28.172-7.912c11.718-7.121,20.228-18.271,24.005-31.433l-12.281-3.423
			c-2.921,10.066-9.413,18.57-18.325,23.984c-6.522,3.968-13.984,6.064-21.581,6.064c-14.687,0.001-28.004-7.488-35.623-20.035
			c-11.926-19.628-5.659-45.301,13.968-57.23c6.524-3.963,13.986-6.058,21.581-6.058c14.688,0,28.008,7.487,35.628,20.029
			c0.541,0.894,1.013,1.795,1.447,2.659l11.406-5.67c-0.542-1.05-1.226-2.328-1.989-3.586
			C375.343,99.067,357.956,89.288,338.784,89.288z"/>
	</g>
	<rect x="29.818" y="59.921" fill="#FFFFFF" width="43.365" height="166.562"/>
	<polygon fill="#FFFFFF" points="92.076,59.921 190.72,59.921 190.72,95.37 135.452,95.37 135.452,123.836 187.224,123.836 
		187.224,157.898 135.452,157.898 135.452,191.013 192.821,191.013 192.821,226.482 92.076,226.482 	"/>
	<path fill="#FFFFFF" d="M452.607,59.921h65.533c31.017,0,45.473,16.558,45.473,41.525c0,17.72-7.696,33.584-26.118,37.315v0.469
		c21.918,2.101,30.776,20.768,30.776,38.029c0,28.923-13.986,49.224-50.131,49.224h-65.535L452.607,59.921L452.607,59.921z
		 M495.988,125.232h10.49c8.858,0,13.765-7.932,13.765-16.792c0-9.328-4.903-17.261-13.765-17.261h-10.49V125.232L495.988,125.232z
		 M495.988,195.213h12.122c7.922,0,15.386-6.993,15.386-20.523c0-12.825-7.464-20.064-15.386-20.064h-12.122V195.213
		L495.988,195.213z"/>
	<polygon fill="#FFFFFF" points="585.064,59.921 683.703,59.921 683.703,95.37 628.436,95.37 628.436,123.836 680.217,123.836 
		680.217,157.898 628.436,157.898 628.436,191.013 685.805,191.013 685.805,226.482 585.064,226.482 	"/>
	<path fill="#FFFFFF" d="M766.5,107.972v-3.966c0-9.798-3.968-17.965-12.367-17.965c-9.329,0-13.519,7.229-13.519,14.702
		c0,32.891,70.888,16.792,70.888,77.679c0,35.459-20.758,51.322-59.001,51.322c-35.917,0-55.962-12.366-55.962-46.888v-5.831h41.975
		v3.965c0,14.223,5.832,19.361,14.225,19.361c8.857,0,13.999-6.994,13.999-16.088c0-32.9-68.104-16.567-68.104-75.588
		c0-33.595,17.954-52.027,54.575-52.027c37.772,0,53.86,15.63,53.86,51.323L766.5,107.972L766.5,107.972z"/>
	<g>
		<rect x="28.498" y="295.053" fill="#333333" width="3.542" height="26.64"/>
		<polygon fill="#333333" points="50.011,295.053 68.396,295.053 68.396,298.029 53.549,298.029 53.549,306.503 67.387,306.503 
			67.387,309.489 53.549,309.489 53.549,318.715 68.504,318.715 68.504,321.691 50.011,321.691 		"/>
		<polygon fill="#333333" points="84.799,295.053 103.184,295.053 103.184,298.029 88.345,298.029 88.345,306.503 102.179,306.503 
			102.179,309.489 88.345,309.489 88.345,318.715 103.295,318.715 103.295,321.691 84.799,321.691 		"/>
		<polygon fill="#333333" points="119.584,295.053 137.975,295.053 137.975,298.029 123.127,298.029 123.127,306.503 
			136.955,306.503 136.955,309.489 123.127,309.489 123.127,318.715 138.086,318.715 138.086,321.691 119.584,321.691 		"/>
		<rect x="153.327" y="309.818" fill="#333333" width="10.773" height="2.984"/>
		<polygon fill="#333333" points="180.883,295.053 199.262,295.053 199.262,298.029 184.426,298.029 184.426,306.503 
			198.259,306.503 198.259,309.489 184.426,309.489 184.426,318.715 199.376,318.715 199.376,321.691 180.883,321.691 		"/>
		<polygon fill="#333333" points="215.738,295.053 220.593,295.053 228.983,317.438 237.412,295.053 242.262,295.053 
			242.262,321.691 238.898,321.691 238.898,299.532 238.82,299.532 230.513,321.691 227.491,321.691 219.176,299.532 
			219.104,299.532 219.104,321.691 215.738,321.691 		"/>
		<path fill="#333333" d="M260.156,295.053h9.653c2.349,0,5.448,0,7.052,0.969c1.757,1.051,3.131,2.955,3.131,5.563
			c0,2.831-1.492,4.962-3.948,5.972v0.071c3.274,0.669,5.067,3.131,5.067,6.416c0,3.912-2.798,7.649-8.088,7.649h-12.865
			L260.156,295.053L260.156,295.053z M263.697,306.514h7.085c4.025,0,5.67-1.463,5.67-4.264c0-3.686-2.61-4.223-5.67-4.223h-7.085
			V306.514z M263.697,318.705h8.871c3.058,0,5.004-1.865,5.004-4.778c0-3.47-2.801-4.438-5.781-4.438h-8.095L263.697,318.705
			L263.697,318.705L263.697,318.705z"/>
		<path fill="#333333" d="M313.1,302.848c-0.407-3.8-2.945-5.447-6.599-5.447c-2.981,0-5.969,1.082-5.969,4.554
			c0,3.282,4.247,3.767,8.542,4.733c4.251,0.979,8.5,2.473,8.5,7.691c0,5.661-5.555,7.938-10.4,7.938
			c-5.972,0-11.005-2.902-11.005-9.401h3.359c0,4.48,3.729,6.426,7.755,6.426c3.208,0,6.75-1.01,6.75-4.85
			c0-3.667-4.253-4.294-8.504-5.231c-4.254-0.927-8.535-2.162-8.535-7.053c0-5.407,4.81-7.794,9.657-7.794
			c5.448,0,9.582,2.584,9.808,8.434H313.1L313.1,302.848z"/>
		<path fill="#333333" d="M374.961,303.075c-0.747-3.769-3.769-5.662-7.461-5.662c-6.337,0-9.025,5.21-9.025,10.771
			c0,6.084,2.688,11.16,9.061,11.16c4.664,0,7.352-3.285,7.688-7.69h3.543c-0.671,6.642-4.812,10.669-11.528,10.669
			c-8.271,0-12.305-6.117-12.305-13.869c0-7.723,4.401-14.033,12.603-14.033c5.562,0,10.143,2.996,10.961,8.658L374.961,303.075
			L374.961,303.075z"/>
		<path fill="#333333" d="M406.432,294.415c8.458,0,12.751,6.724,12.751,13.951c0,7.248-4.293,13.95-12.751,13.95
			c-8.469,0-12.757-6.703-12.757-13.95C393.675,301.139,397.963,294.415,406.432,294.415 M406.432,319.343
			c6.487,0,9.203-5.601,9.203-10.976s-2.716-10.965-9.203-10.965c-6.492,0-9.217,5.59-9.217,10.965S399.939,319.343,406.432,319.343
			"/>
		<polygon fill="#333333" points="435.479,295.053 439.236,295.053 453.259,316.655 453.332,316.655 453.332,295.053 
			456.698,295.053 456.698,321.691 452.817,321.691 438.906,300.314 438.834,300.314 438.834,321.691 435.479,321.691 		"/>
		<polygon fill="#333333" points="474.439,295.053 491.933,295.053 491.933,298.029 477.982,298.029 477.982,306.503 
			490.213,306.503 490.213,309.489 477.982,309.489 477.982,321.691 474.439,321.691 		"/>
		<polygon fill="#333333" points="507.852,295.053 526.229,295.053 526.229,298.029 511.383,298.029 511.383,306.503 
			525.22,306.503 525.22,309.489 511.383,309.489 511.383,318.715 526.344,318.715 526.344,321.691 507.852,321.691 		"/>
		<path fill="#333333" d="M542.632,295.053h12.529c4.993,0,8.095,2.729,8.095,6.971c0,3.215-1.41,5.859-4.624,6.757v0.071
			c3.099,0.605,3.729,2.882,3.983,5.486c0.228,2.604,0.072,5.521,1.576,7.342h-3.953c-1.011-1.069-0.452-3.941-0.979-6.559
			c-0.37-2.616-1.01-4.811-4.438-4.811h-8.649v11.368h-3.541L542.632,295.053L542.632,295.053z M553.557,307.327
			c3.326,0,6.157-0.854,6.157-4.735c0-2.615-1.42-4.552-4.746-4.552h-8.794v9.287H553.557z"/>
		<polygon fill="#333333" points="580.183,295.053 598.563,295.053 598.563,298.029 583.727,298.029 583.727,306.503 
			597.552,306.503 597.552,309.489 583.727,309.489 583.727,318.715 598.676,318.715 598.676,321.691 580.183,321.691 		"/>
		<polygon fill="#333333" points="614.934,295.053 618.702,295.053 632.717,316.655 632.799,316.655 632.799,295.053 
			636.154,295.053 636.154,321.691 632.271,321.691 618.363,300.314 618.289,300.314 618.289,321.691 614.934,321.691 		"/>
		<path fill="#333333" d="M672.614,303.075c-0.743-3.769-3.77-5.662-7.466-5.662c-6.334,0-9.021,5.21-9.021,10.771
			c0,6.084,2.688,11.16,9.063,11.16c4.662,0,7.351-3.285,7.68-7.69h3.555c-0.67,6.642-4.811,10.669-11.521,10.669
			c-8.278,0-12.313-6.117-12.313-13.869c0-7.723,4.404-14.033,12.604-14.033c5.561,0,10.151,2.996,10.965,8.658L672.614,303.075
			L672.614,303.075z"/>
		<polygon fill="#333333" points="692.825,295.053 711.202,295.053 711.202,298.029 696.355,298.029 696.355,306.503 
			710.195,306.503 710.195,309.489 696.355,309.489 696.355,318.715 711.318,318.715 711.318,321.691 692.825,321.691 		"/>
		<path fill="#333333" d="M761.244,294.415c8.463,0,12.746,6.724,12.746,13.951c0,7.248-4.283,13.95-12.746,13.95
			c-8.475,0-12.757-6.703-12.757-13.95C748.488,301.139,752.771,294.415,761.244,294.415 M761.244,319.343
			c6.486,0,9.204-5.601,9.204-10.976s-2.718-10.965-9.204-10.965s-9.217,5.59-9.217,10.965S754.758,319.343,761.244,319.343"/>
		<polygon fill="#333333" points="790.289,295.053 794.059,295.053 808.072,316.655 808.146,316.655 808.146,295.053 
			811.502,295.053 811.502,321.691 807.619,321.691 793.72,300.314 793.638,300.314 793.638,321.691 790.289,321.691 		"/>
	</g>
	<g>
		<path fill="#333333" d="M29.533,345.857h11.951c5.584,0,9.296,2.609,9.296,8.062c0,3.808-2.02,6.776-5.127,7.374v0.1
			c2.423,0.357,6.044,1.414,6.044,8.103c0,3.847-1.697,9.076-10.812,9.076H29.533V345.857z M37.225,358.91h2.108
			c2.649,0,3.751-1.514,3.751-3.848c0-1.69-0.921-3.524-3.706-3.524h-2.153V358.91z M37.225,372.88h2.337
			c3.109,0,4.169-1.962,4.169-4.256c0-3.206-1.651-4.582-4.029-4.582h-2.476L37.225,372.88L37.225,372.88z"/>
		<rect x="55.957" y="345.857" fill="#333333" width="7.696" height="32.713"/>
		<path fill="#333333" d="M79.318,379.208c-10.12,0-11.493-6.606-11.493-16.999c0-10.404,1.373-16.99,11.493-16.99
			c10.9,0,11.499,7.922,11.499,16.99C90.817,371.275,90.218,379.208,79.318,379.208 M79.274,374.076
			c3.113,0,3.576-2.892,3.576-11.867c0-8.979-0.463-11.869-3.576-11.869c-3.025,0-3.482,2.892-3.482,11.869
			S76.249,374.076,79.274,374.076"/>
		<polygon fill="#333333" points="95.072,345.857 106.346,345.857 110.373,367.341 110.465,367.341 114.358,345.857 
			125.482,345.857 125.482,378.57 118.343,378.57 118.343,353.092 118.25,353.092 113.257,378.57 107.308,378.57 102.042,353.092 
			101.952,353.092 101.952,378.57 95.072,378.57 		"/>
		<polygon fill="#333333" points="130.49,345.857 149.396,345.857 149.396,352.085 138.182,352.085 138.182,358.643 
			148.713,358.643 148.713,364.869 138.182,364.869 138.182,372.333 149.91,372.333 149.91,378.57 130.49,378.57 		"/>
		<path fill="#333333" d="M153.387,345.857h11.405c7.601,0,10.854,3.937,10.854,15.305c0,11.856-1.514,17.408-11.633,17.408h-10.626
			V345.857L153.387,345.857z M161.084,372.88h2.058c3.571,0,4.813-1.414,4.813-11.22c0-7.971-0.644-10.122-4.719-10.122h-2.151
			L161.084,372.88L161.084,372.88z"/>
		<rect x="179.816" y="345.857" fill="#333333" width="7.698" height="32.713"/>
		<path fill="#333333" d="M206.107,357.216c0-4.771-0.547-6.875-3.113-6.875c-3.064,0-3.344,2.938-3.344,11.509
			c0,9.707,0.324,12.229,3.522,12.229c2.844,0,3.158-3.249,3.208-8.341h7.418v1.137c0,7.063-1.963,12.336-11.5,12.336
			c-9.837,0-10.619-7.382-10.619-17.229c0-8.382,0.458-16.761,11.357-16.761c6.776,0,10.483,2.918,10.483,10.621v1.374H206.107
			L206.107,357.216z"/>
		<path fill="#333333" d="M223.061,345.857h9.616l8.146,32.7h-7.965l-1.19-6.227h-7.833l-1.146,6.227h-7.961L223.061,345.857z
			 M227.73,351.807h-0.09l-2.71,14.577h5.589L227.73,351.807z"/>
		<polygon fill="#333333" points="243.298,345.857 250.996,345.857 250.996,372.333 262.125,372.333 262.125,378.57 243.298,378.57 
					"/>
		<polygon fill="#333333" points="276.419,345.857 295.336,345.857 295.336,352.085 284.112,352.085 284.112,358.643 
			294.647,358.643 294.647,364.869 284.112,364.869 284.112,372.333 295.839,372.333 295.839,378.57 276.419,378.57 		"/>
		<polygon fill="#333333" points="299.325,345.857 308.164,345.857 314.488,367.111 314.573,367.111 314.573,345.857 
			321.722,345.857 321.722,378.57 313.017,378.57 306.287,356.021 306.192,356.021 306.192,378.57 299.325,378.57 		"/>
		<path fill="#333333" d="M340.314,355.792c0-2.103-0.229-5.451-3.069-5.451c-3.156,0-3.525,3.22-3.525,11.918
			c0,8.929,0.463,11.817,3.525,11.817c2.611,0,3.527-2.383,3.527-6.864v-1.067h-3.617v-5.12h10.761v17.536h-5.261l-0.188-3.116
			h-0.089c-1.19,2.938-4.081,3.767-7.057,3.767c-8.195,0-9.569-6.099-9.569-16.312c0-10.723,0.729-17.677,11.633-17.677
			c9.938,0,10.354,6.863,10.354,10.57L340.314,355.792L340.314,355.792z"/>
		<rect x="352.094" y="345.857" fill="#333333" width="7.696" height="32.713"/>
		<polygon fill="#333333" points="364.686,345.857 373.525,345.857 379.847,367.111 379.937,367.111 379.937,345.857 
			387.08,345.857 387.08,378.57 378.377,378.57 371.642,356.021 371.558,356.021 371.558,378.57 364.686,378.57 		"/>
		<polygon fill="#333333" points="391.854,345.857 410.767,345.857 410.767,352.085 399.541,352.085 399.541,358.643 
			410.078,358.643 410.078,364.869 399.541,364.869 399.541,372.333 411.27,372.333 411.27,378.57 391.854,378.57 		"/>
		<polygon fill="#333333" points="414.757,345.857 433.668,345.857 433.668,352.085 422.448,352.085 422.448,358.643 
			432.98,358.643 432.98,364.869 422.448,364.869 422.448,372.333 434.176,372.333 434.176,378.57 414.757,378.57 		"/>
		<path fill="#333333" d="M437.655,345.857h12.913c6.558,0,8.799,4.023,8.799,8.521c0,4.763-1.935,7.095-5.49,7.97v0.093
			c4.893,0.687,5.173,3.758,5.263,8.159c0.14,6.457,0.367,7.095,1.464,7.554v0.42h-8.288c-0.589-1.106-0.827-2.938-0.827-6.646
			c0-5.688-0.77-6.875-3.209-6.875h-2.919v13.521h-7.702L437.655,345.857L437.655,345.857z M445.355,359.648h2.382
			c3.11,0,3.938-2.345,3.938-4.268c0-2.471-0.917-4.125-3.987-4.125h-2.329L445.355,359.648L445.355,359.648z"/>
		<rect x="464.078" y="345.857" fill="#333333" width="7.704" height="32.713"/>
		<polygon fill="#333333" points="476.684,345.857 485.521,345.857 491.839,367.111 491.929,367.111 491.929,345.857 
			499.072,345.857 499.072,378.57 490.375,378.57 483.646,356.021 483.559,356.021 483.559,378.57 476.684,378.57 		"/>
		<path fill="#333333" d="M517.676,355.792c0-2.103-0.229-5.451-3.067-5.451c-3.16,0-3.529,3.22-3.529,11.918
			c0,8.929,0.459,11.817,3.529,11.817c2.609,0,3.524-2.383,3.524-6.864v-1.067h-3.617v-5.12h10.764v17.536h-5.262l-0.188-3.116
			h-0.089c-1.195,2.938-4.087,3.767-7.057,3.767c-8.2,0-9.575-6.099-9.575-16.312c0-10.723,0.737-17.677,11.638-17.677
			c9.936,0,10.354,6.863,10.354,10.57L517.676,355.792L517.676,355.792z"/>
		<path fill="#333333" d="M547.271,345.857h9.613l8.151,32.7h-7.972l-1.188-6.227h-7.831l-1.146,6.227h-7.972L547.271,345.857z
			 M551.942,351.807h-0.101l-2.701,14.577h5.592L551.942,351.807z"/>
		<polygon fill="#333333" points="567.518,345.857 576.355,345.857 582.672,367.111 582.762,367.111 582.762,345.857 
			589.916,345.857 589.916,378.57 581.206,378.57 574.482,356.021 574.381,356.021 574.381,378.57 567.518,378.57 		"/>
		<path fill="#333333" d="M594.68,345.857h11.399c7.612,0,10.851,3.937,10.851,15.305c0,11.856-1.505,17.408-11.626,17.408H594.68
			V345.857z M602.371,372.88h2.063c3.575,0,4.804-1.414,4.804-11.22c0-7.971-0.641-10.122-4.714-10.122h-2.152V372.88z"/>
		<path fill="#333333" d="M639.238,368.575v1.146c0,2.47,0.697,4.354,3.349,4.354c2.7,0,3.479-2.021,3.479-3.896
			c0-7.058-14.063-3.121-14.063-15.346c0-5.222,2.801-9.615,10.722-9.615c7.692,0,10.442,3.886,10.442,8.929v0.776h-7.425
			c0-1.554-0.188-2.71-0.636-3.438c-0.459-0.776-1.197-1.146-2.332-1.146c-1.935,0-3.079,1.146-3.079,3.529
			c0,6.823,14.061,3.386,14.061,14.944c0,7.411-4.125,10.394-11.17,10.394c-5.591,0-10.763-1.692-10.763-8.521v-2.112
			L639.238,368.575L639.238,368.575z"/>
		<path fill="#333333" d="M799.23,368.575v1.146c0,2.47,0.696,4.354,3.348,4.354c2.701,0,3.479-2.021,3.479-3.896
			c0-7.058-14.063-3.121-14.063-15.346c0-5.222,2.802-9.615,10.724-9.615c7.69,0,10.442,3.886,10.442,8.929v0.776h-7.425
			c0-1.554-0.188-2.71-0.636-3.438c-0.461-0.776-1.198-1.146-2.334-1.146c-1.933,0-3.078,1.146-3.078,3.529
			c0,6.823,14.061,3.386,14.061,14.944c0,7.411-4.127,10.394-11.17,10.394c-5.591,0-10.762-1.692-10.762-8.521v-2.112
			L799.23,368.575L799.23,368.575z"/>
		<path fill="#333333" d="M671.174,357.216c0-4.771-0.559-6.875-3.116-6.875c-3.072,0-3.339,2.938-3.339,11.509
			c0,9.707,0.316,12.229,3.518,12.229c2.839,0,3.158-3.249,3.208-8.341h7.413v1.137c0,7.063-1.963,12.336-11.488,12.336
			c-9.844,0-10.622-7.382-10.622-17.229c0-8.382,0.459-16.761,11.351-16.761c6.784,0,10.492,2.918,10.492,10.621v1.374H671.174
			L671.174,357.216z"/>
		<rect x="682.216" y="345.857" fill="#333333" width="7.689" height="32.713"/>
		<polygon fill="#333333" points="694.811,345.857 713.721,345.857 713.721,352.085 702.503,352.085 702.503,358.643 
			713.033,358.643 713.033,364.869 702.503,364.869 702.503,372.333 714.23,372.333 714.23,378.57 694.811,378.57 		"/>
		<polygon fill="#333333" points="717.706,345.857 726.545,345.857 732.862,367.111 732.962,367.111 732.962,345.857 
			740.105,345.857 740.105,378.57 731.408,378.57 724.672,356.021 724.582,356.021 724.582,378.57 717.706,378.57 		"/>
		<path fill="#333333" d="M758.561,357.216c0-4.771-0.539-6.875-3.108-6.875c-3.067,0-3.349,2.938-3.349,11.509
			c0,9.707,0.318,12.229,3.536,12.229c2.83,0,3.146-3.249,3.198-8.341h7.423v1.137c0,7.063-1.963,12.336-11.499,12.336
			c-9.854,0-10.631-7.382-10.631-17.229c0-8.382,0.467-16.761,11.367-16.761c6.777,0,10.482,2.918,10.482,10.621v1.374H758.561
			L758.561,357.216z"/>
		<polygon fill="#333333" points="769.472,345.857 788.384,345.857 788.384,352.085 777.161,352.085 777.161,358.643 
			787.695,358.643 787.695,364.869 777.161,364.869 777.161,372.333 788.89,372.333 788.89,378.57 769.472,378.57 		"/>
	</g>
</g>
</svg>
